Coordinates
version=1
nRows=6
nColumns=63
inDegrees=yes

Units are S.I. units (second, meters, Newtons, ...)
If the header above contains a line with 'inDegrees', this indicates whether rotational values are in degrees (yes) or radians (no).

endheader
time	pelvis_tilt	pelvis_list	pelvis_rotation	pelvis_tx	pelvis_ty	pelvis_tz	hip_flexion_r	hip_adduction_r	hip_rotation_r	knee_angle_r	knee_angle_r_beta	ankle_angle_r	subtalar_angle_r	mtp_angle_r	hip_flexion_l	hip_adduction_l	hip_rotation_l	knee_angle_l	knee_angle_l_beta	ankle_angle_l	subtalar_angle_l	mtp_angle_l	L5_S1_Flex_Ext	L5_S1_Lat_Bending	L5_S1_axial_rotation	L4_L5_Flex_Ext	L4_L5_Lat_Bending	L4_L5_axial_rotation	L3_L4_Flex_Ext	L3_L4_Lat_Bending	L3_L4_axial_rotation	L2_L3_Flex_Ext	L2_L3_Lat_Bending	L2_L3_axial_rotation	L1_L2_Flex_Ext	L1_L2_Lat_Bending	L1_L2_axial_rotation	L1_T12_Flex_Ext	L1_T12_Lat_Bending	L1_T12_axial_rotation	Abs_r3	Abs_r2	Abs_r1	Abs_t1	Abs_t2	neck_flexion	neck_bending	neck_rotation	arm_flex_r	arm_add_r	arm_rot_r	elbow_flex_r	pro_sup_r	wrist_flex_r	wrist_dev_r	arm_flex_l	arm_add_l	arm_rot_l	elbow_flex_l	pro_sup_l	wrist_flex_l	wrist_dev_l
      2.81355932	      7.57451768	     -9.51186524	     92.02353673	      0.19892432	      0.89666065	      0.68619185	      1.95850396	      4.52310159	     16.04843644	      0.55467890	      0.00968097	     24.04771150	    -17.32408717	      0.00000000	      5.37720432	     -6.67188051	     28.17831500	      1.79492946	      0.03132743	     31.76324745	    -16.23810093	      0.00000000	      0.00912395	      1.10722586	      1.20650120	      0.01694409	      1.47261039	      1.28190753	      0.01498974	      2.69210894	      1.28190753	      0.01042776	      2.69210894	      1.05568855	      0.00847250	      2.25785496	      0.98028223	      0.00521343	      1.71509285	      0.90487590	      0.06517148	     12.52516032	      6.71019773	      0.00000000	      0.00000000	     25.31732768	     -4.37251945	     -4.33056584	      7.14216279	    -26.24411957	     17.49081204	     56.59523917	     86.34994693	    -10.87054734	      8.67113772	     27.47661428	      9.78657537	    173.91245014	      0.15196796	      1.31596883	    -68.26914099	    -22.79884772
      2.83050847	      7.84808305	     -9.66220090	     92.39547764	      0.19743202	      0.89653686	      0.68681679	      2.15193450	      4.71141755	     15.60121237	      0.54931463	      0.00958735	     23.71720198	    -17.35390686	      0.00000000	      5.67739861	     -6.87884316	     28.84551101	      1.62962919	      0.02844239	     32.35011518	    -15.99709466	      0.00000000	      0.00607269	      1.16056983	      1.26949817	      0.01127759	      1.54355788	      1.34884181	      0.00997682	      2.82180949	      1.34884181	      0.00694048	      2.82180949	      1.11081090	      0.00563910	      2.36663400	      1.03146727	      0.00346994	      1.79772267	      0.95212363	      0.04337662	     13.12859807	      7.06056799	      0.00000000	      0.00000000	     25.36584060	     -6.40588767	     -6.08571229	      6.18590020	    -26.80834710	     15.79176414	     57.92180178	     84.00356056	    -10.34425622	     10.32040638	     27.59922225	     10.53106653	    174.20424538	      0.16196896	      1.25998522	    -68.42022679	    -22.58991841
      2.84745763	      7.77667285	     -9.79986232	     92.43164302	      0.19714784	      0.89665493	      0.68749217	      2.32047210	      4.60571418	     15.48342224	      0.55063531	      0.00961040	     23.46485913	    -17.38656278	      0.00000000	      5.88015043	     -6.81304972	     29.12916250	      1.42293373	      0.02483488	     32.59391115	    -15.86444992	      0.00000000	     -0.00808865	      1.16170478	      1.26572855	     -0.01502144	      1.54506736	      1.34483658	     -0.01328885	      2.82456900	      1.34483658	     -0.00924452	      2.82456900	      1.10751248	     -0.00751112	      2.36894839	      1.02840445	     -0.00462186	      1.79948070	      0.94929641	     -0.05777643	     13.14143681	      7.03960248	      0.00000000	      0.00000000	     25.26047486	     -6.74650596	     -6.15876603	      6.33561290	    -26.90679358	     15.67777217	     57.90651502	     83.72710274	    -10.24800525	     10.47423056	     27.71864711	     10.70211704	    174.13660781	      0.16703961	      1.23143206	    -68.47612905	    -22.52277330
      2.86440678	      7.86275283	     -9.97963360	     93.00436909	      0.19609783	      0.89642752	      0.68817126	      2.51754928	      4.63434049	     14.86829532	      0.53083636	      0.00926484	     23.20045024	    -17.59850643	      0.00000000	      6.24480530	     -6.82757340	     29.72115195	      1.27664888	      0.02228173	     32.74849175	    -15.68928548	      0.00000000	     -0.00228039	      1.18066635	      1.15220065	     -0.00423491	      1.57028624	      1.22421319	     -0.00374645	      2.87067216	      1.22421319	     -0.00260625	      2.87067216	      1.00817557	     -0.00211757	      2.40761482	      0.93616303	     -0.00130301	      1.82885217	      0.86415049	     -0.01628858	     13.35593386	      6.40819435	      0.00000000	      0.00000000	     25.11276810	     -7.68006929	     -6.70949395	      6.66609431	    -27.17909767	     15.95876341	     57.89437002	     82.32430632	     -9.54626805	     11.14290078	     27.91978047	     10.82408948	    174.34121262	      0.17029156	      1.25809727	    -68.46062224	    -22.51142664
      2.88135593	      7.83712667	    -10.17815871	     93.05184029	      0.19615269	      0.89612043	      0.68870089	      2.72376721	      4.60353133	     14.64454394	      0.51501678	      0.00898874	     22.92175474	    -17.61589805	      0.00000000	      6.46668674	     -6.82040743	     29.99374316	      1.16101647	      0.02026356	     32.89892793	    -15.64498675	      0.00000000	     -0.00178123	      1.17612877	      1.13202232	     -0.00330793	      1.56425127	      1.20277372	     -0.00292639	      2.85963950	      1.20277372	     -0.00203577	      2.85963950	      0.99051953	     -0.00165405	      2.39836180	      0.91976814	     -0.00101780	      1.82182347	      0.84901674	     -0.01272317	     13.30460392	      6.29596855	      0.00000000	      0.00000000	     25.19105367	     -7.77056525	     -6.81340336	      7.06145866	    -27.20411173	     16.35360233	     57.56377658	     82.02617140	     -9.34565904	     11.18121456	     28.22700050	     10.78388785	    174.73912457	      0.17524716	      1.36200580	    -68.38034411	    -22.65574541
      2.89830508	      7.87576993	    -10.38415557	     93.22848864	      0.19608939	      0.89557826	      0.68934633	      2.95048366	      4.63571113	     14.48313008	      0.49698558	      0.00867403	     22.83213390	    -17.67518289	      0.00000000	      6.69023397	     -6.86276219	     30.22572362	      1.08391874	      0.01891795	     32.86794855	    -15.64829356	      0.00000000	      0.00317048	      1.17693136	      1.07129282	      0.00588790	      1.56531870	      1.13824862	      0.00520878	      2.86159090	      1.13824862	      0.00362354	      2.86159090	      0.93738121	      0.00294411	      2.39999842	      0.87042541	      0.00181161	      1.82306667	      0.80346961	      0.02264642	     13.31368289	      5.95820925	      0.00000000	      0.00000000	     25.30403912	     -7.92447124	     -7.11352701	      7.65478335	    -27.29496502	     17.21234123	     57.11011061	     81.92701088	     -9.07492824	     10.98651680	     28.64795591	     10.64552821	    175.51110675	      0.18160974	      1.49897127	    -68.27154304	    -22.85036270
